# This file uses centimeters as units for non-parametric coordinates.

mtllib Abstract Picture.mtl
g default
v -0.415204 95.220668 45.465879
v -0.626319 95.191930 45.223662
v -0.416579 95.440679 45.246722
v -0.412819 4.505467 45.246122
v -0.626319 4.743893 45.220997
v -0.414010 4.724652 45.466111
v -0.416579 95.440679 -45.250100
v -0.626319 95.194450 -45.229557
v -0.415204 95.220668 -45.469257
v -0.414010 4.724654 -45.469489
v -0.626319 4.741229 -45.227040
v -0.412819 4.505469 -45.249500
v -1.722850 -0.000084 49.770434
v -1.722849 0.219467 49.989983
v -1.942400 0.219468 49.770431
v 0.975267 0.458994 49.758887
v 0.765192 0.216354 49.989987
v 0.769845 -0.000086 49.778202
v 0.975266 0.231012 49.530908
v -1.941650 99.763715 49.770438
v -1.722100 99.763715 49.989987
v -1.722099 99.983268 49.770438
v 0.975992 99.752158 49.530894
v 0.765936 99.983268 49.773540
v 0.770589 99.771476 49.989987
v 0.975990 99.524178 49.758877
v -1.941650 99.763715 -49.773812
v -1.722099 99.983268 -49.773812
v -1.722100 99.763715 -49.993361
v 0.975990 99.524178 -49.762254
v 0.765934 99.766825 -49.993365
v 0.770590 99.983268 -49.781573
v 0.975992 99.752158 -49.534272
v -1.942400 0.219465 -49.773812
v -1.722849 0.219464 -49.993365
v -1.722850 -0.000086 -49.773812
v 0.975266 0.231018 -49.534282
v 0.765191 -0.000080 -49.776922
v 0.769846 0.211706 -49.993361
v 0.975267 0.459000 -49.762261
v 0.897919 3.258793 46.950657
v 0.897918 3.039243 46.731108
v 0.898362 96.943942 46.731108
v 0.898361 96.724390 46.950657
v 0.898361 96.724390 -46.954035
v 0.898362 96.943942 -46.734486
v 0.897918 3.039250 -46.734483
v 0.897919 3.258800 -46.954032
v 0.737025 3.857209 45.913144
v 0.737025 4.076759 46.132693
v 0.737242 96.125977 45.913144
v 0.737242 95.906425 46.132693
v 0.737242 95.906425 -46.136071
v 0.737242 96.125977 -45.916522
v 0.737025 3.857215 -45.916518
v 0.737025 4.076765 -46.136067
v 0.145273 95.347794 45.574777
v 0.145273 95.568062 45.355943
v 0.145273 4.415122 45.354614
v 0.145273 4.634058 45.574777
v 0.145273 95.568062 -45.359321
v 0.145273 95.347794 -45.578155
v 0.145273 4.634065 -45.578151
v 0.145273 4.415129 -45.357988
vt 0.948145 0.971291
vt 0.954177 0.472491
vt 0.957029 0.473032
vt 0.945317 0.971924
vt 0.007296 0.185514
vt 0.948138 0.523190
vt 0.949129 0.472237
vt 0.007296 0.991707
vt 0.980012 0.522996
vt 0.947544 0.472362
vt 0.945317 0.522737
vt 0.944744 0.472899
vt 0.947544 0.024268
vt 0.981064 0.972358
vt 0.979474 0.524336
vt 0.976647 0.523703
vt 0.957030 0.023850
vt 0.979469 0.972438
vt 0.944744 0.023731
vt 0.976647 0.972891
vt 0.888495 0.505963
vt 0.998032 0.496417
vt 0.706815 0.183437
vt 0.916492 0.023492
vt 0.996495 0.496415
vt 0.900837 0.506001
vt 0.921703 0.500863
vt 0.996510 0.003500
vt 0.885180 0.005071
vt 0.923249 0.502064
vt 0.922679 0.493578
vt 0.936590 0.479715
vt 0.937160 0.515927
vt 0.923249 0.992604
vt 0.921718 0.993829
vt 0.900822 0.013048
vt 0.955685 0.994709
vt 0.996618 0.001999
vt 0.983614 0.995882
vt 0.917906 0.517909
vt 0.980642 0.494906
vt 0.979095 0.493704
vt 0.937160 0.978741
vt 0.965185 0.479841
vt 0.979096 0.003178
vt 0.954048 0.500643
vt 0.916369 0.517907
vt 0.916385 0.024993
vt 0.953033 0.501821
vt 0.954579 0.503023
vt 0.965185 0.017041
vt 0.968489 0.516886
vt 0.954580 0.993564
vt 0.953049 0.994789
vt 0.968491 0.979701
vt 0.936589 0.016915
vt 0.940717 0.475665
vt 0.941289 0.519977
vt 0.941289 0.974691
vt 0.961057 0.475791
vt 0.961057 0.021091
vt 0.972618 0.520936
vt 0.972619 0.975651
vt 0.940717 0.020965
vt 0.904042 0.024952
vt 0.921133 0.001850
vt 0.904049 0.517924
vt 0.995957 0.995921
vt 0.885736 0.183437
vt 0.984196 0.001953
vt 0.984167 0.003459
vt 0.922718 0.499684
vt 0.984175 0.496432
vt 0.706258 0.005071
vt 0.952575 0.024493
vt 0.813490 0.991662
vt 0.813443 0.185515
vt 0.949735 0.971150
vt 0.977330 0.974312
vt 0.973578 0.976826
vt 0.973601 0.519732
vt 0.977337 0.522317
vt 0.946007 0.973310
vt 0.942264 0.975887
vt 0.942256 0.518795
vt 0.946001 0.521318
vt 0.969573 0.980794
vt 0.969568 0.515796
vt 0.938242 0.979835
vt 0.938239 0.514837
vt 0.922679 0.003052
vt 0.954066 0.995937
vt 0.904070 0.023446
vt 0.706258 0.183437
vt 0.888502 0.013063
vt 0.955685 0.501881
vt 0.916472 0.519413
vt 0.980627 0.001953
vt 0.904034 0.519424
vt 0.917921 0.024990
vt 0.885180 0.183437
vt 0.922735 0.994977
vt 0.995941 0.502968
vt 0.924354 0.993749
vt 0.885736 0.005071
vt 0.983621 0.502983
vt 0.998047 0.003498
vt 0.924355 0.500922
vt 0.984159 0.497932
vt 0.921148 0.494803
vt 0.706815 0.005071
vt 0.996598 0.497921
vt 0.980022 0.973794
vt 0.981056 0.524465
vt 0.949119 0.024379
vt 0.954177 0.024391
vt 0.949744 0.523284
vt 0.948694 0.521836
vt 0.948684 0.972630
vt 0.952565 0.472377
vn 0.389012 -0.001658 -0.921231
vn 0.415542 -0.909572 -0.001705
vn 0.559499 -0.828829 -0.001746
vn 0.555313 -0.001782 -0.831639
vn 0.999994 -0.002412 -0.002462
vn 0.396425 0.001737 -0.918065
vn 0.999994 0.002467 -0.002418
vn 0.999994 -0.002401 0.002451
vn 0.416177 -0.909282 0.001695
vn 0.366619 0.930370 -0.001697
vn 0.550738 0.001741 -0.834676
vn 0.546437 0.837498 -0.001779
vn 0.367354 0.930080 0.001687
vn 0.999994 0.002455 0.002406
vn 0.387391 -0.001657 0.921914
vn 0.555313 -0.001782 0.831639
vn 0.559499 -0.828829 0.001746
vn 0.394783 0.001735 0.918773
vn 0.546437 0.837499 0.001779
vn 0.550738 0.001741 0.834677
vn -0.080501 -0.996752 0.002054
vn -0.999995 -0.002190 0.002197
vn -0.999995 -0.002190 -0.002197
vn -0.080587 -0.996745 -0.002037
vn -0.080588 -0.002036 0.996745
vn 0.050751 -0.998709 0.002251
vn 0.051435 -0.002259 0.998674
vn -0.080502 0.002055 0.996752
vn -0.999995 0.002205 0.002197
vn 0.988778 -0.000170 0.149389
vn 0.988640 -0.150305 0.000162
vn 0.999114 0.042096 -0.000118
vn 0.999111 0.000112 -0.042153
vn 0.988647 0.000155 0.150257
vn 0.050751 0.002251 0.998709
vn 0.051435 -0.998674 -0.002259
vn 0.988771 -0.149436 -0.000163
vn -0.080589 0.996745 0.002037
vn -0.080503 0.996752 -0.002055
vn -0.999995 0.002205 -0.002197
vn 0.051436 0.998674 0.002259
vn 0.988785 0.149343 0.000163
vn 0.999111 -0.000124 -0.042154
vn 0.999109 -0.042212 -0.000118
vn 0.988654 0.150212 -0.000162
vn 0.050752 0.998709 -0.002251
vn -0.080586 0.002038 -0.996746
vn -0.080502 -0.002054 -0.996752
vn 0.051438 0.002259 -0.998674
vn 0.988778 0.000157 -0.149390
vn 0.999109 -0.042212 0.000118
vn 0.999111 -0.000124 0.042154
vn 0.988647 -0.000168 -0.150258
vn 0.050754 -0.002252 -0.998709
vn 0.999111 0.000112 0.042153
vn 0.999114 0.042096 0.000118
vn 0.933572 0.358387 -0.001061
vn 0.933477 0.001060 -0.358635
vn 0.933524 -0.001065 -0.358513
vn 0.933421 -0.358781 -0.001063
vn 0.933421 -0.358781 0.001063
vn 0.933524 -0.001065 0.358513
vn 0.933477 0.001060 0.358635
vn 0.933572 0.358387 0.001061
s 1
g Picture_LP
usemtl Picture_LPSG
f 1/1/1 3/119/2 58/83/3 57/4/4
f 2/78/5 1/1/1 6/6/6 5/117/7
f 3/2/2 2/120/5 8/75/8 7/116/9
f 4/118/10 6/6/6 60/11/11 59/86/12
f 5/7/7 4/10/10 12/13/13 11/115/14
f 7/9/9 9/15/15 62/16/16 61/82/17
f 9/15/15 8/114/8 11/14/14 10/18/18
f 10/18/18 12/113/13 64/79/19 63/20/20
f 13/74/21 15/111/22 34/23/23 36/94/24
f 14/25/25 13/112/21 18/109/26 17/73/27
f 15/22/22 14/25/25 21/28/28 20/107/29
f 16/30/30 19/108/31 42/90/32 41/33/33
f 17/27/27 16/30/30 26/34/34 25/35/35
f 19/31/31 18/110/26 38/66/36 37/91/37
f 20/29/29 22/105/38 28/69/39 27/101/40
f 22/38/38 21/28/28 25/71/35 24/70/41
f 23/104/42 26/34/34 44/43/43 43/89/44
f 24/41/41 23/42/42 33/45/45 32/98/46
f 27/40/40 29/47/47 35/48/48 34/100/23
f 29/47/47 28/97/39 32/99/46 31/67/49
f 30/50/50 33/96/45 46/88/51 45/52/52
f 31/49/49 30/50/50 40/53/53 39/54/54
f 36/24/24 35/48/48 39/65/54 38/93/36
f 37/37/37 40/53/53 48/55/55 47/87/56
f 41/33/33 42/90/32 49/85/57 50/58/58
f 43/89/44 44/43/43 52/59/59 51/84/60
f 45/52/52 46/88/51 54/81/61 53/62/62
f 47/87/56 48/55/55 56/63/63 55/80/64
f 50/58/58 49/85/57 59/86/12 60/11/11
f 51/84/60 52/59/59 57/4/4 58/83/3
f 53/62/62 54/81/61 61/82/17 62/16/16
f 55/80/64 56/63/63 63/20/20 64/79/19
f 2/5/5 5/77/7 11/76/14 8/8/8
f 14/25/25 17/73/27 25/71/35 21/28/28
f 22/106/38 24/103/41 32/68/46 28/39/39
f 29/47/47 31/67/49 39/65/54 35/48/48
f 36/95/24 38/36/36 18/26/26 13/21/21
f 26/34/34 16/30/30 41/33/33 44/43/43
f 33/45/45 23/42/42 43/44/44 46/51/51
f 40/53/53 30/50/50 45/52/52 48/55/55
f 19/31/31 37/91/37 47/56/56 42/32/32
f 52/59/59 50/58/58 60/11/11 57/4/4
f 54/61/61 51/60/60 58/3/3 61/17/17
f 56/63/63 53/62/62 62/16/16 63/20/20
f 49/57/57 55/64/64 64/19/19 59/12/12
f 6/6/6 1/1/1 57/4/4 60/11/11
f 3/2/2 7/116/9 61/17/17 58/3/3
f 9/15/15 10/18/18 63/20/20 62/16/16
f 12/13/13 4/10/10 59/12/12 64/19/19
f 20/29/29 27/101/40 34/23/23 15/111/22
f 42/32/32 47/56/56 55/64/64 49/57/57
f 48/55/55 45/52/52 53/62/62 56/63/63
f 46/51/51 43/44/44 51/60/60 54/61/61
f 44/43/43 41/33/33 50/58/58 52/59/59
f 1/1/1 2/78/5 3/119/2
f 4/118/10 5/117/7 6/6/6
f 7/9/9 8/114/8 9/15/15
f 10/18/18 11/14/14 12/113/13
f 13/112/21 14/25/25 15/22/22
f 16/30/30 17/27/27 18/72/26 19/108/31
f 20/107/29 21/28/28 22/38/38
f 23/104/42 24/102/41 25/35/35 26/34/34
f 27/40/40 28/97/39 29/47/47
f 30/50/50 31/49/49 32/46/46 33/96/45
f 34/100/23 35/48/48 36/24/24
f 37/37/37 38/92/36 39/54/54 40/53/53
